<svg width="32" height="32" viewBox="0 0 32 32" fill="none" xmlns="http://www.w3.org/2000/svg">
<path d="M26.7425 17.6848C27.1956 18.1568 27.6177 18.6482 28.0072 19.1567C28.7511 20.2447 28.8764 20.9634 28.8764 22.1679C28.8724 24.0861 27.9377 25.9248 26.2773 27.2805C24.6168 28.6362 22.3662 29.3984 20.0192 29.3997L7.01566 29.4401L6.98277 22.6933L6.97651 22.5915C6.97651 22.5608 6.91856 21.8396 7.46044 21.3564C7.89269 20.9724 8.65617 20.7759 9.73132 20.7759L18.3332 20.7797C19.9234 20.7802 21.4956 20.5045 22.9456 19.9709C24.3956 19.4373 25.6903 18.6581 26.7441 17.6848H26.7425ZM5.91468 10.3115C3.97112 8.51375 3.34389 5.86612 3.17397 3.822C6.99608 5.2255 13.3694 5.00278 14.6364 4.94262H18.3285C20.4836 4.94448 22.5497 5.64498 24.0735 6.89039C25.5973 8.1358 26.4544 9.82441 26.4567 11.5857C26.4565 12.3066 26.3108 13.0226 26.0252 13.7047C24.204 12.8371 22.1335 12.3803 20.0254 12.3812C19.9873 12.3811 19.9492 12.3843 19.9119 12.3908L12.3029 12.4004C9.56218 12.4004 7.41424 11.6964 5.91468 10.3108V10.3115ZM0.198335 0L0.131775 0.436471C0.085574 0.735985 -0.940236 7.81168 3.57098 11.9927C5.68994 13.9556 8.62798 14.9501 12.3068 14.9501L20.027 14.9411C20.0534 14.9417 20.0797 14.9393 20.1053 14.9341C21.6453 14.9431 23.1554 15.2821 24.485 15.9171C23.7257 16.6432 22.7827 17.226 21.721 17.6252C20.6593 18.0244 19.5042 18.2305 18.3356 18.2294L9.73445 18.2256C7.7259 18.2256 6.177 18.7094 5.13005 19.6636C3.79885 20.8745 3.82782 22.3516 3.86697 22.7579L3.91004 32L20.0286 31.9501C26.6298 31.9501 32 27.5604 32 22.166C32 20.3887 31.668 19.2745 30.7322 17.9088C30.152 17.0723 29.2789 16.2243 28.4888 15.5408C29.2119 14.3061 29.5865 12.9545 29.585 11.5857C29.585 6.51699 24.5382 2.39291 18.3356 2.39291L14.5143 2.39739C4.4989 2.75834 0.654076 0.302074 0.616489 0.277754L0.198335 0Z" fill="url(#paint0_linear_1_81)"/>
<defs>
<linearGradient id="paint0_linear_1_81" x1="16.8047" y1="36.7929" x2="15.5172" y2="-21.4959" gradientUnits="userSpaceOnUse">
<stop stop-color="#20387F"/>
<stop offset="0.08" stop-color="#20387F"/>
<stop offset="0.6" stop-color="#7DB942"/>
<stop offset="0.9" stop-color="#7DB942"/>
<stop offset="1" stop-color="#7DB942"/>
</linearGradient>
</defs>
</svg>
