<svg width="97" height="28" viewBox="0 0 97 28" fill="none" xmlns="http://www.w3.org/2000/svg">
<path d="M19.1402 13.6748C19.3976 13.9698 19.6375 14.2769 19.8588 14.5948C20.2815 15.2748 20.3527 15.724 20.3527 16.4768C20.3504 17.6757 19.8193 18.8249 18.8758 19.6722C17.9323 20.5196 16.6534 20.9959 15.3198 20.9968L7.93087 21.022L7.91218 16.8052L7.90862 16.7416C7.90862 16.7224 7.87569 16.2716 8.1836 15.9696C8.42921 15.7296 8.86304 15.6068 9.47397 15.6068L14.3618 15.6092C15.2654 15.6094 16.1587 15.4371 16.9826 15.1036C17.8066 14.7702 18.5423 14.2831 19.141 13.6748H19.1402ZM7.30526 9.06638C6.20088 7.94278 5.84448 6.28798 5.74792 5.01038C7.91974 5.88758 11.5412 5.74838 12.2612 5.71078H14.3591C15.5837 5.71195 16.7577 6.14976 17.6235 6.92816C18.4894 7.70656 18.9764 8.76196 18.9777 9.86278C18.9776 10.3134 18.8948 10.7608 18.7326 11.1872C17.6977 10.6449 16.5212 10.3594 15.3233 10.36C15.3017 10.3599 15.28 10.3619 15.2588 10.366L10.9352 10.372C9.37786 10.372 8.15735 9.93198 7.30526 9.06598V9.06638ZM4.0571 2.62158L4.01927 2.89438C3.99302 3.08158 3.41013 7.50398 5.97351 10.1172C7.17756 11.344 8.84703 11.9656 10.9374 11.9656L15.3242 11.96C15.3392 11.9603 15.3542 11.9588 15.3687 11.9556C16.2438 11.9612 17.1018 12.1731 17.8573 12.57C17.4259 13.0238 16.8901 13.388 16.2868 13.6375C15.6835 13.8871 15.0272 14.0159 14.3631 14.0152L9.47575 14.0128C8.33444 14.0128 7.45432 14.3152 6.85942 14.9116C6.10299 15.6684 6.11946 16.5916 6.14171 16.8456L6.16618 22.622L15.3251 22.5908C19.0761 22.5908 22.1276 19.8472 22.1276 16.4756C22.1276 15.3648 21.9389 14.6684 21.4072 13.8148C21.0775 13.292 20.5814 12.762 20.1324 12.3348C20.5433 11.5631 20.7562 10.7183 20.7553 9.86278C20.7553 6.69478 17.8876 4.11718 14.3631 4.11718L12.1917 4.11998C6.50078 4.34558 4.31606 2.81038 4.2947 2.79518L4.0571 2.62158Z" fill="url(#paint0_linear_1_2)"/>
<path d="M26.4516 5.4624H28.3756V10.32H28.4237C28.5334 10.1917 28.657 10.0734 28.7925 9.96681C28.9594 9.8359 29.1423 9.72237 29.3376 9.62841C29.5711 9.51572 29.8188 9.42856 30.0753 9.36881C30.3897 9.29764 30.7131 9.26375 31.0373 9.26801C31.5562 9.26286 32.0703 9.35836 32.5444 9.54801C32.9928 9.72868 33.3943 9.99164 33.7231 10.32C34.0556 10.6575 34.3138 11.0487 34.4839 11.4728C34.6686 11.93 34.7609 12.4132 34.7567 12.8996C34.7609 13.3849 34.6741 13.8674 34.4999 14.3268C34.3393 14.7534 34.0831 15.1459 33.7471 15.48C33.4111 15.8099 33.0018 16.0726 32.5457 16.2512C32.0755 16.4379 31.5465 16.5312 30.9586 16.5312C30.4335 16.535 29.9138 16.4366 29.435 16.2428C28.9619 16.0491 28.5688 15.7262 28.3115 15.32H28.2795V16.36H26.4516V5.4624ZM32.8332 12.8996C32.8338 12.6337 32.7821 12.3698 32.6805 12.12C32.5817 11.8743 32.4291 11.6489 32.2316 11.4572C32.0188 11.2532 31.7618 11.0906 31.4764 10.9794C31.1909 10.8683 30.8832 10.8109 30.5721 10.8109C30.2611 10.8109 29.9533 10.8683 29.6679 10.9794C29.3824 11.0906 29.1254 11.2532 28.9127 11.4572C28.7154 11.649 28.5627 11.8744 28.4637 12.12C28.2608 12.6229 28.2608 13.1739 28.4637 13.6768C28.5626 13.9226 28.7152 14.1481 28.9127 14.34C29.1254 14.5441 29.3824 14.7068 29.6678 14.818C29.9533 14.9292 30.261 14.9865 30.5721 14.9865C30.8832 14.9865 31.191 14.9292 31.4764 14.818C31.7618 14.7068 32.0189 14.5441 32.2316 14.34C32.4288 14.1492 32.5814 13.9248 32.6805 13.68C32.7823 13.43 32.834 13.1658 32.8332 12.8996V12.8996Z" fill="#414042"/>
<path d="M43.3056 16.36H41.4782V15.2492H41.4462C41.2541 15.6062 40.9679 15.9154 40.6123 16.15C40.238 16.4044 39.7303 16.5318 39.0892 16.532C38.5758 16.532 38.1401 16.4575 37.7824 16.3084C37.4418 16.172 37.1422 15.9645 36.9085 15.7032C36.6823 15.4459 36.5184 15.1489 36.4275 14.8312C36.3304 14.4971 36.2819 14.153 36.2833 13.8076V9.44H38.2073V12.9424C38.2073 13.1348 38.2176 13.3488 38.2394 13.5824C38.2586 13.8096 38.3153 14.033 38.4076 14.2452C38.4945 14.4479 38.6381 14.627 38.8245 14.7652C39.0114 14.9044 39.276 14.974 39.6183 14.974C39.9387 14.974 40.2084 14.926 40.4277 14.83C40.6399 14.7392 40.8263 14.6061 40.9727 14.4408C41.1183 14.2747 41.2243 14.0834 41.2842 13.8788C41.349 13.663 41.3815 13.4404 41.3808 13.2168V9.44H43.3047L43.3056 16.36Z" fill="#414042"/>
<path d="M45.2327 9.43999H47.0606V10.52H47.0926C47.2635 10.1931 47.5388 9.90239 47.9185 9.64799C48.2982 9.39359 48.8085 9.26626 49.4496 9.26599C50.6578 9.26599 51.4594 9.69359 51.8545 10.5488C52.1328 10.1069 52.4802 9.78253 52.8966 9.57559C53.3131 9.36866 53.8103 9.26546 54.3881 9.26599C54.9013 9.26599 55.3341 9.34279 55.6865 9.49639C56.0264 9.64093 56.3211 9.85889 56.5444 10.1308C56.7706 10.4139 56.9314 10.7349 57.0174 11.0748C57.116 11.455 57.1644 11.8444 57.1615 12.2348V16.36H55.2375V12.44C55.2382 12.2345 55.2167 12.0294 55.1735 11.8276C55.137 11.6431 55.0615 11.4665 54.951 11.3076C54.8433 11.158 54.6941 11.0363 54.5181 10.9544C54.3359 10.868 54.1007 10.8247 53.8124 10.8244C53.5127 10.8244 53.259 10.8749 53.051 10.976C52.8475 11.0729 52.6719 11.2111 52.538 11.3796C52.4014 11.5532 52.3033 11.7489 52.2492 11.956C52.1904 12.1707 52.1605 12.3909 52.1602 12.612V16.36H50.2353V12.24C50.2353 11.8077 50.1338 11.4641 49.9306 11.2092C49.7274 10.9543 49.3907 10.8269 48.9205 10.8272C48.5995 10.8272 48.3296 10.8753 48.1107 10.9716C47.8987 11.0628 47.7124 11.1958 47.5656 11.3608C47.4202 11.527 47.3142 11.7183 47.2541 11.9228C47.189 12.139 47.1565 12.362 47.1576 12.586V16.36H45.2336L45.2327 9.43999Z" fill="#414042"/>
<path d="M62.1067 9.44H64.2229L66.3711 14.24H66.4036L68.3276 9.44H70.3299L66.9429 17.2724C66.8194 17.57 66.6665 17.857 66.4859 18.13C66.3303 18.3643 66.1326 18.5738 65.9008 18.75C65.6673 18.9222 65.3972 19.0497 65.107 19.1248C64.8024 19.2064 64.4363 19.2472 64.0089 19.2472C63.5109 19.2477 63.015 19.1897 62.5339 19.0744L62.7741 17.5176C62.9289 17.567 63.0868 17.6079 63.2471 17.64C63.4129 17.6736 63.5822 17.6905 63.7521 17.6904C63.9519 17.694 64.1514 17.6746 64.3457 17.6328C64.4944 17.601 64.6334 17.5399 64.7526 17.454C64.8718 17.368 64.9682 17.2592 65.0349 17.1356C65.1097 17.006 65.1898 16.8499 65.2752 16.6672L65.3913 16.416L62.1067 9.44Z" fill="#414042"/>
<path d="M75.8353 15.4076H75.7873C75.5093 15.8017 75.1566 16.0876 74.7292 16.2652C74.2862 16.4459 73.8046 16.537 73.3182 16.532C72.9685 16.5324 72.6204 16.4888 72.2841 16.4024C71.9614 16.3218 71.6573 16.19 71.3862 16.0132C71.1251 15.841 70.909 15.6196 70.753 15.3644C70.5926 15.1047 70.5123 14.802 70.5123 14.4564C70.5123 14.0815 70.5865 13.7615 70.7348 13.4964C70.8786 13.2383 71.0838 13.0119 71.3359 12.8332C71.5995 12.6496 71.8947 12.5059 72.2098 12.408C72.5459 12.3013 72.892 12.2217 73.2439 12.1704C73.6021 12.1175 73.9634 12.0837 74.326 12.0692C74.6897 12.0548 75.0317 12.0476 75.3521 12.0476H75.8331V11.8604C75.8331 11.4281 75.6674 11.1039 75.3361 10.8876C75.0047 10.6713 74.5826 10.5632 74.0697 10.5632C73.6797 10.5604 73.2928 10.6265 72.9311 10.7576C72.5922 10.8796 72.2821 11.0583 72.0172 11.284L71.0071 10.3756C71.4237 9.98818 71.9379 9.69651 72.5062 9.5252C73.0771 9.35254 73.6756 9.26499 74.278 9.266C74.8232 9.266 75.283 9.3212 75.6573 9.4316C75.9922 9.52421 76.3068 9.66805 76.5873 9.8568C76.822 10.0184 77.0159 10.2229 77.1564 10.4568C77.2856 10.6726 77.3827 10.9027 77.4452 11.1412C77.5023 11.3614 77.5371 11.5858 77.5493 11.8116C77.56 12.0276 77.5653 12.2173 77.5653 12.3808V16.36H75.8335L75.8353 15.4076ZM75.7232 13.26H75.3227C75.0557 13.26 74.7564 13.2696 74.4248 13.2888C74.1079 13.3061 73.7936 13.3519 73.4868 13.4256C73.218 13.4871 72.9649 13.5948 72.7415 13.7428C72.5384 13.8825 72.4367 14.0772 72.4367 14.3268C72.4311 14.4714 72.4729 14.6142 72.5569 14.7376C72.6385 14.8489 72.7445 14.9442 72.8684 15.0176C73.0003 15.0961 73.147 15.1524 73.3013 15.1836C73.4589 15.2169 73.6203 15.2338 73.7823 15.234C74.4447 15.234 74.9341 15.0923 75.2506 14.8088C75.5672 14.5253 75.7248 14.1387 75.7236 13.6488L75.7232 13.26Z" fill="#414042"/>
<path d="M83.5668 11.3576C83.1928 10.8869 82.6904 10.6515 82.0598 10.6512C81.7966 10.6526 81.5378 10.712 81.306 10.824C81.0598 10.9395 80.9369 11.1269 80.9372 11.3864C80.9372 11.5976 81.0388 11.7513 81.2419 11.8476C81.4864 11.9573 81.7449 12.0395 82.0117 12.0924C82.3214 12.1601 82.6554 12.2299 83.0138 12.3016C83.3629 12.3709 83.7 12.4824 84.0158 12.6332C84.3226 12.7797 84.5862 12.9896 84.7851 13.2456C84.988 13.5053 85.0896 13.8609 85.0899 14.3124C85.0899 14.7255 84.991 15.0737 84.7931 15.3572C84.6 15.6366 84.3365 15.8712 84.0238 16.042C83.6939 16.2201 83.3328 16.3467 82.9559 16.4164C82.5661 16.493 82.1682 16.5317 81.7692 16.532C81.2084 16.5373 80.6505 16.4593 80.118 16.3012C79.6137 16.1476 79.1648 15.8689 78.7711 15.4652L80.0535 14.3852C80.2844 14.6229 80.5527 14.8289 80.8499 14.9968C81.1329 15.1568 81.4776 15.2361 81.884 15.2348C82.0296 15.2341 82.1747 15.2197 82.317 15.1916C82.4637 15.1639 82.6044 15.1151 82.7339 15.0472C82.8566 14.9842 82.9628 14.8983 83.0454 14.7952C83.1262 14.692 83.1683 14.5682 83.1655 14.442C83.1655 14.202 83.0639 14.0243 82.8607 13.9088C82.6218 13.7804 82.3623 13.686 82.0914 13.6288C81.7811 13.5568 81.4471 13.4895 81.0893 13.4268C80.7413 13.3678 80.404 13.266 80.0869 13.1244C79.7815 12.9887 79.5175 12.7883 79.3175 12.5404C79.1143 12.2908 79.0127 11.9449 79.0127 11.5028C79.0127 11.1183 79.1017 10.7849 79.2797 10.5028C79.4492 10.2241 79.687 9.98377 79.9752 9.80001C80.2765 9.61229 80.6133 9.47552 80.9692 9.39641C81.8485 9.19232 82.7756 9.22994 83.6309 9.50441C84.1215 9.65566 84.5474 9.94078 84.8492 10.32L83.5668 11.3576Z" fill="#414042"/>
<path d="M91.3251 15.4076H91.2766C90.9986 15.8025 90.6459 16.0884 90.2185 16.2652C89.7755 16.4459 89.2939 16.537 88.8075 16.532C88.4578 16.5323 88.1097 16.4887 87.7734 16.4024C87.4507 16.3218 87.1467 16.19 86.8755 16.0132C86.6144 15.841 86.3983 15.6196 86.2423 15.3644C86.0822 15.1047 86.0019 14.802 86.0016 14.4564C86.0016 14.0815 86.0758 13.7615 86.2241 13.4964C86.3679 13.2383 86.5731 13.0119 86.8252 12.8332C87.0893 12.65 87.385 12.5069 87.7005 12.4096C88.0366 12.3029 88.3827 12.2233 88.7345 12.172C89.0927 12.1191 89.454 12.0853 89.8167 12.0708C90.1803 12.0564 90.5225 12.0492 90.8432 12.0492H91.3242V11.862C91.3242 11.4297 91.1585 11.1055 90.8272 10.8892C90.4958 10.6729 90.0736 10.5648 89.5604 10.5648C89.1705 10.562 88.7838 10.628 88.4222 10.7592C88.0832 10.881 87.773 11.0597 87.5082 11.2856L86.4991 10.3772C86.9158 9.98972 87.4301 9.69805 87.9986 9.5268C88.5694 9.35412 89.1677 9.26656 89.7699 9.2676C90.3155 9.2676 90.7752 9.3228 91.1493 9.4332C91.4842 9.52581 91.7988 9.66965 92.0793 9.8584C92.3141 10.0199 92.508 10.2244 92.6483 10.4584C92.7778 10.6741 92.8749 10.9042 92.9371 11.1428C92.9942 11.363 93.0291 11.5874 93.0412 11.8132C93.0519 12.0292 93.0573 12.2189 93.0573 12.3824V16.36H91.3259L91.3251 15.4076ZM91.2125 13.26H90.812C90.5451 13.26 90.2459 13.2696 89.9146 13.2888C89.5976 13.3061 89.2834 13.3519 88.9766 13.4256C88.7076 13.4871 88.4544 13.5948 88.2308 13.7428C88.0274 13.8825 87.9258 14.0772 87.9261 14.3268C87.9206 14.4714 87.9625 14.6143 88.0466 14.7376C88.1281 14.8491 88.2341 14.9443 88.3581 15.0176C88.49 15.0961 88.6367 15.1523 88.791 15.1836C88.9487 15.2169 89.1101 15.2338 89.272 15.234C89.935 15.234 90.4245 15.0923 90.7404 14.8088C91.0563 14.5253 91.214 14.1387 91.2134 13.6488L91.2125 13.26Z" fill="#414042"/>
<path d="M58.7829 7.10201C58.7829 7.64921 59.295 8.13881 59.9998 8.13881C60.7046 8.13881 61.2488 7.69241 61.2488 7.10201C61.2488 6.51161 60.7042 6.06561 59.9998 6.06561C59.2955 6.06561 58.7829 6.55521 58.7829 7.10201Z" fill="url(#paint1_linear_1_2)"/>
<path d="M60.9761 9.44881H59.0543V16.3588H60.9761V9.44881Z" fill="#414042"/>
<path d="M26.4516 20.4268H26.7747V22.5676H26.4516V20.4268Z" fill="#6D6E71"/>
<path d="M29.6873 20.4268H30.1109L31.4227 22.1868H31.4298V20.4268H31.7524V22.5676H31.3421L30.0166 20.8076H30.0099V22.5676H29.6873V20.4268Z" fill="#6D6E71"/>
<path d="M34.6411 20.4268H35.4718C35.6213 20.4246 35.7705 20.442 35.9145 20.4784C36.0315 20.5086 36.1426 20.555 36.2437 20.616C36.3331 20.6705 36.4116 20.7381 36.476 20.816C36.5353 20.8868 36.5844 20.9639 36.6224 21.0456C36.6571 21.1217 36.683 21.2008 36.6998 21.2816C36.7147 21.3534 36.7226 21.4262 36.7234 21.4992C36.7236 21.6353 36.695 21.7703 36.6393 21.8968C36.5832 22.0248 36.4984 22.1411 36.3901 22.2384C36.2733 22.3423 36.1344 22.4239 35.9817 22.4784C35.8023 22.5412 35.6108 22.5716 35.4184 22.5676H34.6411V20.4268ZM34.9641 22.2956H35.3712C35.5027 22.2962 35.6336 22.2793 35.7596 22.2456C35.8764 22.2148 35.9855 22.164 36.0809 22.096C36.1735 22.0285 36.2482 21.9432 36.2993 21.8464C36.3554 21.737 36.383 21.6176 36.3799 21.4972C36.3781 21.4162 36.3657 21.3356 36.3429 21.2572C36.3167 21.1625 36.2693 21.0735 36.2037 20.9956C36.1276 20.9074 36.0304 20.8356 35.9194 20.7856C35.7725 20.723 35.611 20.6934 35.4486 20.6992H34.9641V22.2956Z" fill="#6D6E71"/>
<path d="M40.5981 22.622C40.4264 22.6237 40.256 22.5944 40.097 22.536C39.9497 22.4817 39.8163 22.4008 39.705 22.2984C39.5948 22.1956 39.5081 22.0744 39.4496 21.9416C39.3262 21.6557 39.3262 21.3387 39.4496 21.0528C39.5081 20.92 39.5948 20.7988 39.705 20.696C39.8162 20.5936 39.9497 20.5129 40.097 20.4588C40.4189 20.3436 40.7777 20.3436 41.0995 20.4588C41.2467 20.513 41.38 20.5937 41.4911 20.696C41.6014 20.7988 41.6884 20.92 41.7469 21.0528C41.8704 21.3387 41.8704 21.6557 41.7469 21.9416C41.6884 22.0744 41.6014 22.1956 41.4911 22.2984C41.3799 22.4007 41.2467 22.4815 41.0995 22.536C40.9404 22.5944 40.7699 22.6236 40.5981 22.622V22.622ZM40.5981 22.35C40.7204 22.352 40.8418 22.3307 40.9543 22.2875C41.0669 22.2443 41.1679 22.1801 41.2508 22.0992C41.3305 22.0205 41.3922 21.9285 41.4324 21.8284C41.5178 21.6143 41.5178 21.3801 41.4324 21.166C41.3922 21.066 41.3305 20.9742 41.2508 20.8956C41.1673 20.8152 41.0663 20.751 40.954 20.7072C40.8418 20.6633 40.7207 20.6407 40.5983 20.6407C40.4759 20.6407 40.3548 20.6633 40.2426 20.7072C40.1303 20.751 40.0293 20.8152 39.9458 20.8956C39.8658 20.974 39.8039 21.0659 39.7638 21.166C39.6789 21.3802 39.6789 21.6142 39.7638 21.8284C39.8039 21.9286 39.8658 22.0206 39.9458 22.0992C40.0286 22.18 40.1296 22.2442 40.242 22.2874C40.3545 22.3306 40.4758 22.352 40.5981 22.35V22.35Z" fill="#6D6E71"/>
<path d="M44.6111 20.4268H45.0351L46.3469 22.1868H46.3535V20.4268H46.6757V22.5676H46.2654L44.9399 20.8076H44.9333V22.5676H44.6102L44.6111 20.4268Z" fill="#6D6E71"/>
<path d="M49.5901 20.4268H51.1275V20.6988H49.9132V21.3388H51.0434V21.6108H49.9132V22.2972H51.188V22.5692H49.5901V20.4268Z" fill="#6D6E71"/>
<path d="M54.0642 22.12C54.1184 22.1958 54.1956 22.2562 54.2866 22.294C54.3748 22.3307 54.4707 22.3498 54.5678 22.35C54.6237 22.3497 54.6791 22.342 54.7325 22.3272C54.7875 22.3126 54.8393 22.2896 54.8855 22.2592C54.9313 22.2293 54.9696 22.1912 54.9981 22.1472C55.0284 22.1005 55.0438 22.0472 55.0426 21.9932C55.0449 21.9576 55.0381 21.9221 55.0227 21.8893C55.0072 21.8565 54.9836 21.8273 54.9536 21.804C54.8885 21.7573 54.8153 21.7206 54.7369 21.6952C54.6479 21.666 54.5563 21.638 54.4539 21.6108C54.3545 21.5846 54.2594 21.5464 54.1714 21.4972C54.0838 21.4477 54.0098 21.3811 53.9547 21.3024C53.8905 21.2019 53.8597 21.087 53.8657 20.9712C53.8667 20.9027 53.8818 20.8349 53.9102 20.7712C53.942 20.6982 53.9909 20.6322 54.0535 20.5776C54.1258 20.5148 54.2109 20.465 54.304 20.4308C54.4211 20.3891 54.5464 20.3691 54.6724 20.372C54.7988 20.3715 54.9246 20.3878 55.0457 20.4204C55.1691 20.4563 55.2777 20.5247 55.3572 20.6168L55.0947 20.8316C55.052 20.7733 54.9927 20.7263 54.9229 20.6956C54.8448 20.6604 54.7584 20.6426 54.6711 20.644C54.5953 20.6422 54.5199 20.653 54.4486 20.676C54.3951 20.6933 54.3463 20.7206 54.3053 20.756C54.2717 20.7863 54.246 20.8229 54.2301 20.8632C54.2163 20.8972 54.2087 20.933 54.2079 20.9692C54.2053 21.0077 54.2119 21.0462 54.2272 21.0821C54.2426 21.1181 54.2663 21.1506 54.2969 21.1776C54.36 21.2296 54.4335 21.2703 54.5136 21.2976C54.6059 21.3292 54.7003 21.3559 54.7961 21.3776C54.8947 21.4006 54.9896 21.4347 55.0786 21.4792C55.1648 21.5222 55.239 21.5821 55.2958 21.6544C55.3599 21.745 55.391 21.8512 55.3848 21.9584C55.3868 22.055 55.3643 22.1508 55.3189 22.2384C55.277 22.3187 55.2163 22.3899 55.1409 22.4472C55.0634 22.5051 54.9743 22.5492 54.8784 22.5772C54.7742 22.6079 54.6651 22.6232 54.5554 22.6224C54.407 22.6232 54.2598 22.5986 54.1216 22.55C53.9908 22.5058 53.8774 22.4281 53.7954 22.3264L54.0642 22.12Z" fill="#6D6E71"/>
<path d="M58.1644 20.4268H58.4874V22.5676H58.1644V20.4268Z" fill="#6D6E71"/>
<path d="M62.1645 20.4268H62.4573L63.4763 22.5676H63.0998L62.8609 22.04H61.7272L61.4918 22.5676H61.1149L62.1645 20.4268ZM62.743 21.7844L62.298 20.8016H62.2927L61.8419 21.7844H62.743Z" fill="#6D6E71"/>
<path d="M69.3951 20.4268H70.9319V20.6988H69.7176V21.3388H70.8478V21.6108H69.7176V22.2972H70.9929V22.5692H69.3951V20.4268Z" fill="#6D6E71"/>
<path d="M73.7262 20.4268H74.1498L75.462 22.1868H75.4687V20.4268H75.7913V22.5676H75.381L74.0559 20.8076H74.0488V22.5676H73.7262V20.4268Z" fill="#6D6E71"/>
<path d="M78.7079 20.4268H80.2453V20.6988H79.031V21.3388H80.1612V21.6108H79.031V22.2972H80.3058V22.5692H78.7079V20.4268Z" fill="#6D6E71"/>
<path d="M83.0356 20.4268H83.8739C84.0023 20.4231 84.1304 20.4421 84.2507 20.4828C84.3393 20.5141 84.419 20.5626 84.4843 20.6248C84.5401 20.6802 84.581 20.7465 84.6036 20.8184C84.6255 20.8857 84.6369 20.9555 84.6374 21.0256C84.6379 21.0939 84.6242 21.1618 84.5969 21.2256C84.5701 21.2889 84.5308 21.3473 84.4808 21.398C84.4282 21.4509 84.3655 21.4949 84.2957 21.528C84.22 21.564 84.1371 21.5861 84.0518 21.5932L84.7282 22.5696H84.3246L83.719 21.6264H83.359V22.5696H83.0365L83.0356 20.4268ZM83.3582 21.3704H83.7822C83.8446 21.3703 83.907 21.3657 83.9686 21.3568C84.0264 21.3487 84.0823 21.3318 84.1337 21.3068C84.1821 21.282 84.2222 21.2459 84.2498 21.2024C84.2786 21.147 84.2934 21.0867 84.2934 21.0256C84.2934 20.9645 84.2786 20.9042 84.2498 20.8488C84.2225 20.8051 84.1824 20.7689 84.1337 20.7444C84.0823 20.7192 84.0265 20.7023 83.9686 20.6944C83.907 20.6853 83.8446 20.6807 83.7822 20.6808H83.3582V21.3704Z" fill="#6D6E71"/>
<path d="M89.4171 21.3704V22.4256C89.3543 22.4598 89.2878 22.4882 89.2186 22.5104C89.1431 22.5349 89.0662 22.5556 88.9881 22.5724C88.9084 22.5894 88.8276 22.6019 88.7461 22.61C88.6696 22.6177 88.5926 22.6217 88.5156 22.622C88.3307 22.625 88.1471 22.5942 87.9759 22.5316C87.8252 22.4753 87.6889 22.3919 87.5754 22.2864C87.4662 22.1828 87.3816 22.0603 87.3267 21.9264C87.269 21.7887 87.2399 21.6427 87.2408 21.4956C87.2393 21.3435 87.2707 21.1925 87.3334 21.0512C87.3918 20.9184 87.4786 20.7972 87.5888 20.6944C87.7 20.5921 87.8335 20.5114 87.9808 20.4572C88.1397 20.3985 88.31 20.3691 88.4818 20.3708C88.6648 20.3655 88.8473 20.3906 89.0202 20.4448C89.1515 20.4898 89.2707 20.5593 89.3699 20.6488L89.1412 20.8696C89.053 20.7909 88.9467 20.7305 88.8297 20.6928C88.718 20.6592 88.6009 20.6424 88.4831 20.6428C88.3609 20.641 88.2395 20.6625 88.1271 20.7058C88.0147 20.7491 87.9138 20.8132 87.8308 20.894C87.7512 20.9726 87.6895 21.0644 87.6493 21.1644C87.6062 21.2705 87.5845 21.3827 87.5852 21.4956C87.584 21.6111 87.608 21.7257 87.656 21.8328C87.7009 21.9335 87.767 22.0255 87.8509 22.1036C87.9343 22.1803 88.0338 22.2413 88.1436 22.2832C88.2595 22.3274 88.3844 22.3496 88.5103 22.3484C88.6194 22.3489 88.7282 22.3392 88.8351 22.3196C88.9262 22.3039 89.0141 22.2759 89.0958 22.2364V21.6424H88.5672V21.3704H89.4171Z" fill="#6D6E71"/>
<path d="M92.3057 20.4268H92.6288V22.5676H92.3057V20.4268Z" fill="#6D6E71"/>
<defs>
<linearGradient id="paint0_linear_1_2" x1="13.4932" y1="25.6176" x2="12.6082" y2="-10.8099" gradientUnits="userSpaceOnUse">
<stop stop-color="#20387F"/>
<stop offset="0.08" stop-color="#20387F"/>
<stop offset="0.6" stop-color="#7DB942"/>
<stop offset="0.9" stop-color="#7DB942"/>
<stop offset="1" stop-color="#7DB942"/>
</linearGradient>
<linearGradient id="paint1_linear_1_2" x1="58.8541" y1="7.95681" x2="62.003" y2="5.0935" gradientUnits="userSpaceOnUse">
<stop stop-color="#004E48"/>
<stop offset="0.08" stop-color="#004E48"/>
<stop offset="0.6" stop-color="#7DB942"/>
<stop offset="0.9" stop-color="#7DB942"/>
<stop offset="1" stop-color="#7DB942"/>
</linearGradient>
</defs>
</svg>
