<svg width="409" height="500" viewBox="0 0 409 500" fill="none" xmlns="http://www.w3.org/2000/svg">
<path d="M341.513 276.33C347.299 283.706 352.689 291.384 357.663 299.33C367.163 316.33 368.773 327.56 368.773 346.38C368.773 408.7 318.033 459.38 255.653 459.38L89.5928 460.01L89.1728 354.59L89.0928 353C89.0928 352.52 88.3528 341.25 95.2828 333.7C100.793 327.7 110.543 324.63 124.283 324.63L234.143 324.69C254.449 324.696 274.524 320.387 293.039 312.05C311.555 303.713 328.087 291.538 341.543 276.33H341.513ZM75.5428 161.12C50.7328 133.03 42.7128 91.66 40.5428 59.72C89.3528 81.65 170.743 78.17 186.923 77.23H234.083C261.602 77.2618 287.984 88.2083 307.442 107.668C326.9 127.128 337.844 153.511 337.873 181.03C337.867 192.295 336.002 203.482 332.353 214.14C309.095 200.583 282.654 193.447 255.733 193.46C255.246 193.459 254.76 193.509 254.283 193.61L157.113 193.76C122.113 193.76 94.6828 182.76 75.5328 161.11L75.5428 161.12ZM2.53281 0L1.68281 6.82C1.09281 11.5 -12.0072 122.06 45.6028 187.39C72.6628 218.06 110.183 233.6 157.163 233.6L255.773 233.45C256.11 233.456 256.446 233.419 256.773 233.34C276.438 233.484 295.722 238.78 312.703 248.7C303.004 260.045 290.959 269.15 277.399 275.387C263.84 281.625 249.088 284.847 234.163 284.83L124.323 284.77C98.6728 284.77 78.8928 292.33 65.5228 307.24C48.5228 326.16 48.8928 349.24 49.3928 355.59L49.9428 500L255.783 499.22C340.083 499.22 408.663 430.63 408.663 346.34C408.663 318.57 404.423 301.16 392.473 279.82C385.063 266.75 373.913 253.5 363.823 242.82C373.058 223.528 377.842 202.408 377.823 181.02C377.823 101.82 313.373 37.38 234.173 37.38L185.333 37.46C57.4528 43.15 8.33282 4.77 7.87282 4.39L2.53281 0Z" fill="white"/>
</svg>
