<svg width="409" height="501" viewBox="0 0 409 501" fill="none" xmlns="http://www.w3.org/2000/svg">
<path d="M341.513 276.33C347.298 283.706 352.689 291.384 357.663 299.33C367.163 316.33 368.763 327.56 368.763 346.38C368.713 376.353 356.776 405.082 335.571 426.266C314.367 447.45 285.626 459.359 255.653 459.38L89.5928 460.01L89.1728 354.59L89.0928 353C89.0928 352.52 88.3528 341.25 95.2728 333.7C100.793 327.7 110.543 324.63 124.273 324.63L234.123 324.69C254.43 324.696 274.507 320.389 293.024 312.051C311.541 303.714 328.076 291.538 341.533 276.33H341.513ZM75.5328 161.12C50.7128 133.03 42.7028 91.66 40.5328 59.72C89.3428 81.65 170.733 78.17 186.913 77.23H234.063C261.583 77.2591 287.968 88.2045 307.428 107.664C326.888 127.124 337.834 153.509 337.863 181.03C337.861 192.295 335.999 203.482 332.353 214.14C309.095 200.583 282.653 193.447 255.733 193.46C255.246 193.459 254.76 193.509 254.283 193.61L157.113 193.76C122.113 193.76 94.6828 182.76 75.5328 161.11V161.12ZM2.53281 0L1.68281 6.82C1.09281 11.5 -12.0072 122.06 45.6028 187.39C72.6628 218.06 110.183 233.6 157.163 233.6L255.753 233.46C256.09 233.468 256.426 233.431 256.753 233.35C276.419 233.491 295.703 238.787 312.683 248.71C302.987 260.055 290.944 269.161 277.386 275.399C263.827 281.637 249.077 284.858 234.153 284.84L124.313 284.78C98.6628 284.78 78.8828 292.34 65.5128 307.25C48.5128 326.17 48.8828 349.25 49.3828 355.6L49.9328 500.01L255.773 499.23C340.073 499.23 408.653 430.64 408.653 346.35C408.653 318.58 404.413 301.17 392.463 279.83C385.053 266.76 373.903 253.51 363.813 242.83C373.047 223.538 377.832 202.418 377.813 181.03C377.813 101.83 313.363 37.39 234.153 37.39L185.353 37.46C57.4528 43.1 8.35281 4.72 7.87281 4.34L2.53281 0Z" fill="url(#paint0_linear_1_81)"/>
<defs>
<linearGradient id="paint0_linear_1_81" x1="214.603" y1="574.9" x2="189.993" y2="-335.66" gradientUnits="userSpaceOnUse">
<stop stop-color="#20387F"/>
<stop offset="0.08" stop-color="#20387F"/>
<stop offset="0.6" stop-color="#7DB942"/>
<stop offset="0.9" stop-color="#7DB942"/>
<stop offset="1" stop-color="#7DB942"/>
</linearGradient>
</defs>
</svg>
