<?xml version="1.0" encoding="UTF-8"?>
<svg data-name="Layer 1" viewBox="0 0 2180 700" xmlns="http://www.w3.org/2000/svg">
<defs>
<style>.cls-1{fill:#fff;}</style>
</defs>
<path class="cls-1" d="M441.18,341.87a265.48,265.48,0,0,1,16.15,23c9.5,17,11.11,28.23,11.11,47.05,0,62.32-50.74,113-113.12,113l-166.06.63-.42-105.42-.08-1.59c0-.48-.74-11.75,6.19-19.3,5.51-6,15.26-9.07,29-9.07l109.86.06a143.35,143.35,0,0,0,107.4-48.36m-266-115.21c-24.81-28.09-32.83-69.46-35-101.4,48.81,21.93,130.2,18.45,146.38,17.51h47.16a103.91,103.91,0,0,1,103.79,103.8,102.36,102.36,0,0,1-5.52,33.11A152,152,0,0,0,355.4,259a6.93,6.93,0,0,0-1.45.15l-97.17.15c-35,0-62.43-11-81.58-32.65m-73-161.11-.85,6.82c-.59,4.68-13.69,115.24,43.92,180.57,27.06,30.67,64.58,46.21,111.56,46.21l98.61-.15a3.92,3.92,0,0,0,1-.11,112.51,112.51,0,0,1,55.93,15.36,103.18,103.18,0,0,1-78.54,36.13l-109.84-.06c-25.65,0-45.43,7.56-58.8,22.47-17,18.92-16.63,42-16.13,48.35l.55,144.41,205.84-.78c84.3,0,152.88-68.59,152.88-152.88,0-27.77-4.24-45.18-16.19-66.52-7.41-13.07-18.56-26.32-28.65-37a142.84,142.84,0,0,0,14-61.8c0-79.2-64.45-143.64-143.65-143.64L285,103c-127.88,5.69-177-32.69-177.46-33.07Z"/>
<path class="cls-1" d="M605.5,136.56h43.24V258h1.08a62.17,62.17,0,0,1,8.29-8.83,66,66,0,0,1,12.25-8.46,74.61,74.61,0,0,1,16.58-6.49,83.53,83.53,0,0,1,21.62-2.52,81.11,81.11,0,0,1,33.87,7A79.13,79.13,0,0,1,768.92,258,89,89,0,0,1,786,286.82a102.18,102.18,0,0,1,6.13,35.67,108,108,0,0,1-5.77,35.68A82.37,82.37,0,0,1,769.46,387a79.83,79.83,0,0,1-27,19.28q-15.85,7-35.67,7a81.78,81.78,0,0,1-34.23-7.21A55.57,55.57,0,0,1,647.3,383h-.72V409H605.5ZM748.92,322.49A56.37,56.37,0,0,0,745.49,303a48.79,48.79,0,0,0-10.09-16.57,51.12,51.12,0,0,0-74.59,0A49,49,0,0,0,650.72,303a57.07,57.07,0,0,0,0,38.92,48.9,48.9,0,0,0,10.09,16.58,51.11,51.11,0,0,0,74.59,0A48.74,48.74,0,0,0,745.49,342,56.29,56.29,0,0,0,748.92,322.49Z"/>
<path class="cls-1" d="M984.29,409H943.21V381.23h-.72a60.74,60.74,0,0,1-18.74,22.52q-12.62,9.54-34.23,9.55-17.29,0-29.37-5.59a52.84,52.84,0,0,1-19.64-15.13,59,59,0,0,1-10.81-21.8,99.71,99.71,0,0,1-3.24-25.59V236H869.7v87.56q0,7.21.72,16a57.5,57.5,0,0,0,3.78,16.57,31.59,31.59,0,0,0,9.37,13q6.3,5.22,17.84,5.22,10.8,0,18.19-3.6a34.92,34.92,0,0,0,12.26-9.73,38.7,38.7,0,0,0,7-14.05,62.82,62.82,0,0,0,2.17-16.58V236h43.24Z"/>
<path class="cls-1" d="M1027.59,236h41.08v27h.72q5.76-12.26,18.56-21.8t34.41-9.55q40.73,0,54.05,32.07,9.38-16.57,23.43-24.33t33.51-7.74q17.3,0,29.18,5.76a51.08,51.08,0,0,1,19.28,15.86,65.28,65.28,0,0,1,10.63,23.6,124.19,124.19,0,0,1,3.24,29V409h-43.23V311a79.83,79.83,0,0,0-1.45-15.31,36.62,36.62,0,0,0-5-13,25.61,25.61,0,0,0-9.73-8.83q-6.13-3.24-15.85-3.25-10.1,0-17.12,3.79a33.36,33.36,0,0,0-11.53,10.09,41.3,41.3,0,0,0-6.49,14.41,68.9,68.9,0,0,0-2,16.4V409H1140v-103q0-16.21-6.85-25.77t-22.7-9.55q-10.8,0-18.19,3.61a35,35,0,0,0-12.26,9.73,38.7,38.7,0,0,0-7,14.05,62.82,62.82,0,0,0-2.17,16.58V409h-43.24Z"/>
<path class="cls-1" d="m1406.9 236h47.56l48.29 120h0.72l43.24-120h45l-76.12 195.81a132 132 0 0 1-10.27 21.44 61.84 61.84 0 0 1-13.15 15.5 49.88 49.88 0 0 1-17.84 9.37q-10.26 3.06-24.68 3.06a128.16 128.16 0 0 1-33.15-4.32l5.4-38.92a91.6 91.6 0 0 0 10.63 3.06 51.41 51.41 0 0 0 11.35 1.26 52.75 52.75 0 0 0 13.34-1.44 23.11 23.11 0 0 0 15.49-12.43q2.52-4.86 5.41-11.71l2.61-6.28z"/>
<path class="cls-1" d="M1715.37,385.19h-1.09q-9.37,14.78-23.78,21.44a74.69,74.69,0,0,1-31.71,6.67,84.25,84.25,0,0,1-23.24-3.24,63.22,63.22,0,0,1-20.18-9.73,49.92,49.92,0,0,1-14.23-16.22q-5.42-9.74-5.41-22.7,0-14.06,5-24a49.15,49.15,0,0,1,13.51-16.58,68.67,68.67,0,0,1,19.64-10.63,134.39,134.39,0,0,1,23.24-5.94,206.21,206.21,0,0,1,24.32-2.53q12.26-.54,23.07-.54h10.81v-4.68q0-16.21-11.18-24.32t-28.46-8.11a67,67,0,0,0-25.59,4.86,65,65,0,0,0-20.54,13.16l-22.7-22.71a84,84,0,0,1,33.7-21.26,124.06,124.06,0,0,1,39.81-6.48q18.38,0,31,4.14a68.47,68.47,0,0,1,20.9,10.63,47.06,47.06,0,0,1,12.79,15,69.46,69.46,0,0,1,6.49,17.11,93.74,93.74,0,0,1,2.34,16.76q.36,8.1.36,14.23V409h-38.91Zm-2.53-53.69h-9q-9,0-20.17.72a106.58,106.58,0,0,0-21.08,3.42,48.37,48.37,0,0,0-16.76,7.93q-6.85,5.24-6.85,14.6a18.35,18.35,0,0,0,2.71,10.27,24.45,24.45,0,0,0,7,7,29.35,29.35,0,0,0,9.73,4.15,47.54,47.54,0,0,0,10.81,1.26q22.34,0,33-10.63t10.63-29Z"/>
<path class="cls-1" d="m1889.1 283.94q-12.61-17.65-33.87-17.66a36.24 36.24 0 0 0-16.94 4.32q-8.3 4.33-8.29 14.06 0 7.92 6.85 11.53a75 75 0 0 0 17.3 6.12q10.44 2.54 22.52 5.23a88.8 88.8 0 0 1 22.52 8.29 49.41 49.41 0 0 1 17.3 15.31q6.84 9.74 6.84 26.67 0 15.49-6.67 26.12a52.39 52.39 0 0 1-17.29 17.12 76.66 76.66 0 0 1-24 9.36 125.37 125.37 0 0 1-26.67 2.89 114.61 114.61 0 0 1-37.11-5.77q-17-5.76-30.27-20.9l28.83-27a80.73 80.73 0 0 0 17.87 15.29q9.54 6 23.24 5.95a46.46 46.46 0 0 0 9.73-1.08 31.39 31.39 0 0 0 9.37-3.61 22.19 22.19 0 0 0 7-6.3 14.81 14.81 0 0 0 2.7-8.83q0-9-6.85-13.33a60.72 60.72 0 0 0-17.29-7q-10.46-2.7-22.52-5.05a86.82 86.82 0 0 1-22.52-7.56 47.22 47.22 0 0 1-17.3-14.6q-6.85-9.36-6.85-25.94 0-14.42 6-25a52.29 52.29 0 0 1 15.65-17.57 67.79 67.79 0 0 1 22.34-10.09 102.05 102.05 0 0 1 59.82 2.7 56 56 0 0 1 27.39 20.39z"/>
<path class="cls-1" d="M2063.48,385.19h-1.08Q2053,400,2038.61,406.63a74.66,74.66,0,0,1-31.71,6.67,84.3,84.3,0,0,1-23.24-3.24,63.33,63.33,0,0,1-20.18-9.73,49.92,49.92,0,0,1-14.23-16.22q-5.4-9.74-5.4-22.7,0-14.06,5-24a49.27,49.27,0,0,1,13.51-16.58A68.67,68.67,0,0,1,1982,310.24a134.39,134.39,0,0,1,23.24-5.94,206.38,206.38,0,0,1,24.33-2.53q12.24-.54,23.06-.54h10.81v-4.68q0-16.21-11.17-24.32t-28.47-8.11a66.91,66.91,0,0,0-25.58,4.86,64.74,64.74,0,0,0-20.54,13.16L1955,259.43a83.86,83.86,0,0,1,33.69-21.26,124.1,124.1,0,0,1,39.81-6.48q18.39,0,31,4.14a68.47,68.47,0,0,1,20.9,10.63,46.93,46.93,0,0,1,12.79,15,69.07,69.07,0,0,1,6.49,17.11,93.74,93.74,0,0,1,2.34,16.76q.36,8.1.36,14.23V409h-38.91ZM2061,331.5h-9q-9,0-20.18.72a106.58,106.58,0,0,0-21.08,3.42,48.37,48.37,0,0,0-16.76,7.93q-6.84,5.24-6.84,14.6a18.43,18.43,0,0,0,2.7,10.27,24.45,24.45,0,0,0,7,7,29.35,29.35,0,0,0,9.73,4.15,47.54,47.54,0,0,0,10.81,1.26q22.35,0,33-10.63t10.64-29Z"/>
<path class="cls-1" d="m1332.2 177.55c0 13.68 11.51 25.92 27.35 25.92s28.07-11.16 28.07-25.92-12.23-25.91-28.07-25.91-27.35 12.24-27.35 25.91"/>
<rect class="cls-1" x="1338.3" y="236.22" width="43.19" height="172.75"/>
<path class="cls-1" d="m605.5 510.67h7.26v53.52h-7.26z"/>
<path class="cls-1" d="M678.22,510.67h9.52l29.49,44h.15v-44h7.25v53.52h-9.22l-29.78-44h-.16v44h-7.25Z"/>
<path class="cls-1" d="M789.55,510.67h18.68a34.49,34.49,0,0,1,9.94,1.29,26.2,26.2,0,0,1,7.4,3.44,21.5,21.5,0,0,1,5.22,5,26.48,26.48,0,0,1,3.29,5.74,29.3,29.3,0,0,1,1.74,5.9,31.19,31.19,0,0,1,.53,5.44,26.88,26.88,0,0,1-1.89,9.94,25.07,25.07,0,0,1-5.6,8.54,27.47,27.47,0,0,1-9.18,6A32.8,32.8,0,0,1,807,564.19H789.55Zm7.26,46.72H806a30.06,30.06,0,0,0,8.73-1.25,21.18,21.18,0,0,0,7.22-3.74,17.92,17.92,0,0,0,4.91-6.24,19.76,19.76,0,0,0,1.82-8.73,26.35,26.35,0,0,0-.83-6,18.27,18.27,0,0,0-3.14-6.54,18.64,18.64,0,0,0-6.39-5.25,22.58,22.58,0,0,0-10.58-2.16H796.81Z"/>
<path class="cls-1" d="m923.43 565.55a28.93 28.93 0 0 1-11.26-2.15 26.34 26.34 0 0 1-8.81-5.94 27.36 27.36 0 0 1-5.74-8.92 30.71 30.71 0 0 1 0-22.22 27.36 27.36 0 0 1 5.74-8.92 26.17 26.17 0 0 1 8.81-5.93 30.46 30.46 0 0 1 22.53 0 26.13 26.13 0 0 1 8.8 5.93 27.38 27.38 0 0 1 5.75 8.92 30.71 30.71 0 0 1 0 22.22 27.38 27.38 0 0 1-5.75 8.92 26.3 26.3 0 0 1-8.8 5.94 29 29 0 0 1-11.27 2.15zm0-6.8a19.46 19.46 0 0 0 14.67-6.27 20.29 20.29 0 0 0 4.08-6.77 24.52 24.52 0 0 0 0-16.56 20.24 20.24 0 0 0-4.08-6.76 20.06 20.06 0 0 0-29.33 0 19.92 19.92 0 0 0-4.08 6.76 24.53 24.53 0 0 0 0 16.56 19.57 19.57 0 0 0 10.43 11.34 19.75 19.75 0 0 0 8.31 1.7z"/>
<path class="cls-1" d="M1013.63,510.67h9.52l29.48,44h.15v-44H1060v53.52h-9.22l-29.79-44h-.15v44h-7.25Z"/>
<path class="cls-1" d="m1125.6 510.67h34.55v6.8h-27.29v16h25.4v6.8h-25.4v17.16h28.65v6.8h-35.91z"/>
<path class="cls-1" d="M1226.07,553a11.84,11.84,0,0,0,5,4.35,15.05,15.05,0,0,0,6.31,1.4,12.76,12.76,0,0,0,3.7-.57,11.17,11.17,0,0,0,3.44-1.7,9.17,9.17,0,0,0,2.53-2.8,7.36,7.36,0,0,0,1-3.85,5.8,5.8,0,0,0-2-4.73,17,17,0,0,0-4.87-2.72q-2.91-1.1-6.35-2.11a25.52,25.52,0,0,1-6.35-2.84,15.43,15.43,0,0,1-4.88-4.87,15.21,15.21,0,0,1-2-8.28,14.24,14.24,0,0,1,4.24-9.83,17.78,17.78,0,0,1,5.63-3.67,21,21,0,0,1,8.28-1.47,28.76,28.76,0,0,1,8.39,1.21,14.51,14.51,0,0,1,7,4.91l-5.9,5.37a9.77,9.77,0,0,0-3.85-3.4,12.15,12.15,0,0,0-5.67-1.29,13.7,13.7,0,0,0-5,.8,9,9,0,0,0-3.21,2,7.1,7.1,0,0,0-1.7,2.68,8.17,8.17,0,0,0-.49,2.65,6.73,6.73,0,0,0,2,5.21,15.17,15.17,0,0,0,4.88,3,57,57,0,0,0,6.34,2,27.26,27.26,0,0,1,6.36,2.54,14.68,14.68,0,0,1,4.87,4.38,12.9,12.9,0,0,1,2,7.6,15.85,15.85,0,0,1-1.48,7,15.39,15.39,0,0,1-4,5.22,17.86,17.86,0,0,1-5.9,3.25,22.72,22.72,0,0,1-7.26,1.13,26.34,26.34,0,0,1-9.75-1.81,16,16,0,0,1-7.33-5.59Z"/>
<path class="cls-1" d="m1318.2 510.67h7.26v53.52h-7.26z"/>
<path class="cls-1" d="m1408.1 510.67h6.58l22.9 53.52h-8.46l-5.37-13.19h-25.48l-5.31 13.19h-8.47zm13 33.94-10-24.57h-0.14l-10.13 24.57z"/>
<path class="cls-1" d="m1570.7 510.67h34.55v6.8h-27.29v16h25.4v6.8h-25.4v17.16h28.65v6.8h-35.91z"/>
<path class="cls-1" d="M1668,510.67h9.52l29.49,44h.15v-44h7.26v53.52h-9.23l-29.78-44h-.15v44H1668Z"/>
<path class="cls-1" d="m1779.9 510.67h34.55v6.8h-27.29v16h25.4v6.8h-25.4v17.16h28.65v6.8h-35.91z"/>
<path class="cls-1" d="M1877.18,510.67H1896a22.07,22.07,0,0,1,8.47,1.4,14.53,14.53,0,0,1,5.25,3.55,12.13,12.13,0,0,1,2.68,4.84,18.89,18.89,0,0,1,.76,5.18,14,14,0,0,1-3.52,9.26,15,15,0,0,1-4.15,3.25,14.71,14.71,0,0,1-5.48,1.63l15.19,24.41h-9.07l-13.61-23.58h-8.09v23.58h-7.25Zm7.25,23.59H1894a26.61,26.61,0,0,0,4.19-.34,11.52,11.52,0,0,0,3.71-1.25,7,7,0,0,0,2.61-2.61,10.46,10.46,0,0,0,0-8.84,6.82,6.82,0,0,0-2.61-2.61,11.28,11.28,0,0,0-3.71-1.25A25.47,25.47,0,0,0,1894,517h-9.53Z"/>
<path class="cls-1" d="M2020.6,534.26v26.38a24.28,24.28,0,0,1-4.46,2.12,48.72,48.72,0,0,1-5.18,1.55,45.13,45.13,0,0,1-5.44.94,48,48,0,0,1-5.18.3,30.76,30.76,0,0,1-12.13-2.26,26.7,26.7,0,0,1-9-6.13,26.16,26.16,0,0,1-5.6-9,30.1,30.1,0,0,1-1.93-10.77,29.29,29.29,0,0,1,2.08-11.11,27.38,27.38,0,0,1,5.75-8.92,26,26,0,0,1,8.8-5.93,28.84,28.84,0,0,1,11.27-2.16,33.4,33.4,0,0,1,12.09,1.85,22.28,22.28,0,0,1,7.86,5.1l-5.14,5.52a19.09,19.09,0,0,0-7-4.42,24.25,24.25,0,0,0-7.78-1.25,19.52,19.52,0,0,0-14.67,6.28,20.24,20.24,0,0,0-4.08,6.76,23.71,23.71,0,0,0-1.44,8.28,22,22,0,0,0,1.59,8.43,21,21,0,0,0,4.38,6.77,20.3,20.3,0,0,0,6.58,4.49,20.54,20.54,0,0,0,8.24,1.63,35.65,35.65,0,0,0,7.3-.72,20.53,20.53,0,0,0,5.86-2.08V541.06h-11.87v-6.8Z"/>
<path class="cls-1" d="m2085.5 510.67h7.26v53.52h-7.26z"/>
</svg>
